<svg xmlns="http://www.w3.org/2000/svg" width="36.194" height="21.702" viewBox="0 0 36.194 21.702"><g transform="translate(-188.903 -488.87)"><path d="M18.725,14.44H.716A.716.716,0,0,0,0,15.155V18.5a.716.716,0,0,0,.716.716H18.725v2.747a1.432,1.432,0,0,0,2.444,1.012L26.3,17.838a1.431,1.431,0,0,0,0-2.024L21.169,10.68a1.432,1.432,0,0,0-2.444,1.012Z" transform="translate(198.376 487.18)" fill="#fff"/><path d="M8,19.211H26.005a.716.716,0,0,0,.716-.716v-3.34a.716.716,0,0,0-.716-.716H8V11.692A1.432,1.432,0,0,0,5.552,10.68L.419,15.813a1.431,1.431,0,0,0,0,2.024l5.133,5.133A1.432,1.432,0,0,0,8,21.958Z" transform="translate(188.903 478.612)" fill="#fff"/></g></svg>