<svg xmlns="http://www.w3.org/2000/svg" xmlns:xlink="http://www.w3.org/1999/xlink" width="119" height="119" viewBox="0 0 119 119"><defs><linearGradient id="a" y1="-0.096" x2="1.327" y2="1.186" gradientUnits="objectBoundingBox"><stop offset="0" stop-color="#ffb74d"/><stop offset="1" stop-color="#71c9ce"/></linearGradient></defs><g transform="translate(-280 -338)"><rect width="119" height="119" rx="25" transform="translate(280 338)" fill="url(#a)"/><g transform="translate(233.872 291.872)"><g transform="translate(59 59)"><g transform="translate(0)"><path d="M93.256,73.828H89.37V65.279A46.632,46.632,0,0,1,0,46.628H3.886A42.747,42.747,0,0,0,86.452,62.171H77.713V58.285H93.256ZM15.543,34.971H0V19.428H3.886v8.548A46.632,46.632,0,0,1,93.256,46.628H89.37A42.747,42.747,0,0,0,6.8,31.085h8.739v3.886Z" transform="translate(0)" fill="#fff" fill-rule="evenodd"/><text transform="translate(15.247 73.433)" fill="#fff" font-size="22" font-family="Maven Pro"><tspan x="0" y="0">8</tspan></text><g transform="translate(22.381 25.412)"><path d="M40.192-155.843q0,9.249-3.159,13.746t-9.875,4.5q-6.631,0-9.819-4.4t-3.3-13.134v-7.03q0-9.135,3.159-13.575t9.9-4.44q6.688,0,9.847,4.283t3.244,13.219Zm-5.265-7.2q0-6.688-1.878-9.747A6.465,6.465,0,0,0,27.1-175.85,6.38,6.38,0,0,0,21.21-172.8q-1.85,3.045-1.907,9.363v8.424q0,6.716,1.949,9.918a6.453,6.453,0,0,0,5.905,3.2,6.364,6.364,0,0,0,5.792-3.017q1.893-3.017,1.978-9.505Z" transform="translate(8.354 180.176)" fill="#fff"/><path d="M36.661-136.953H31.367v-35.091l-10.615,3.9v-4.781l15.084-5.663h.825Z" transform="translate(-20.752 179.058)" fill="#fff"/></g></g></g></g></g></svg>