<svg xmlns="http://www.w3.org/2000/svg" width="17.787" height="14.996" viewBox="0 0 17.787 14.996"><g transform="translate(-198.107 -392.997)"><path d="M15.083,13.993l6.725,6.022a1.373,1.373,0,0,0,1.795,0,1.059,1.059,0,0,0,0-1.611l-7.619-6.822a1.378,1.378,0,0,0-1.753-.033L6.558,18.4a1.06,1.06,0,0,0,0,1.611,1.373,1.373,0,0,0,1.795,0Z" transform="translate(191.919 387.643)" fill="rgba(56,128,255,0.6)"/><path d="M15.083,13.993l6.725,6.022a1.373,1.373,0,0,0,1.795,0,1.059,1.059,0,0,0,0-1.611l-7.619-6.822a1.378,1.378,0,0,0-1.753-.033L6.558,18.4a1.06,1.06,0,0,0,0,1.611,1.373,1.373,0,0,0,1.795,0Z" transform="translate(191.919 381.746)" fill="rgba(56,128,255,0.6)"/></g></svg>